Coordinates
version=1
nRows=16
nColumns=33
inDegrees=yes

Units are S.I. units (second, meters, Newtons, ...)
Angles are in degrees.

endheader
time	ground_thorax_rot_x	ground_thorax_rot_y	ground_thorax_rot_z	ground_thorax_tx	ground_thorax_ty	ground_thorax_tz	clav_prot_r	clav_elev_r	scapula_abduction_r	scapula_elevation_r	scapula_upward_rot_r	scapula_winging_r	shoulder_elv_r	plane_of_elev_r	axial_rot_r	elbow_flexion_r	pro_sup_r	wrist_flex_r	wrist_dev_r	clav_prot_l	clav_elev_l	scapula_abduction_l	scapula_elevation_l	scapula_upward_rot_l	scapula_winging_l	shoulder_elv_l	plane_of_elev_l	axial_rot_l	elbow_flexion_l	pro_sup_l	wrist_flex_l	wrist_dev_l
     10.14000000	    -19.74311625	    -35.93604763	     56.97463558	     89.25681535	    768.85156627	    -41.31335168	     28.54391291	    -45.00000000	     39.41652792	    -45.00000000	    -45.00000000	  -4059.54657910	  -2629.17675889	    161.79706264	     40.49543896	    720.68735393	    174.90379242	     13.05370699	     12.77556698	     -0.95334144	     29.69842320	    -24.99267877	    -45.00000000	    -45.00000000	  -3881.21691049	  -1005.68491952	     25.78014621	     46.74110130	   1429.41272703	     40.90886054	     12.01876218	    -14.20847408
     10.15000000	    -19.96217158	    -35.66620125	     56.69067538	     88.96551804	    768.24915952	    -41.27116887	     28.51941648	    -45.00000000	     39.26968553	    -45.00000000	    -45.00000000	  -4059.69529338	  -2629.12238889	    161.73501372	     40.89678942	    720.63043152	    174.96073974	     13.03811322	     12.78107753	     -0.90060604	     29.06084107	    -25.13788386	    -45.00000000	    -45.00000000	  -3881.22438295	  -1005.71730993	     25.78928714	     46.65534443	   1429.40595522	     41.75771496	     11.90620956	    -14.54523141
     10.16000000	    -19.94674191	    -35.51925758	     56.64999934	     88.53852693	    767.68758267	    -41.23146399	     28.41378732	    -45.00000000	     39.31213146	    -45.00000000	    -45.00000000	  -4059.68277725	  -2629.03843502	    161.85613751	     40.91205586	    720.72249432	    174.91698285	     13.03939729	     12.70955631	     -0.95101929	     29.67887641	    -25.10727054	    -45.00000000	    -45.00000000	  -3881.17497490	  -1005.72498911	     25.78610835	     46.69341671	   1429.47963643	     42.27324600	     11.87985881	    -14.41363192
     10.17000000	    -20.08565395	    -35.30319083	     56.35251739	     87.98998628	    767.16567935	    -41.20145414	     28.55219017	    -45.00000000	     39.30304852	    -45.00000000	    -45.00000000	  -4059.74294593	  -2629.01149861	    161.73722389	     41.33894963	    720.79325394	    174.96909335	     12.96142047	     12.72255498	     -0.89775446	     29.06197930	    -25.13899464	    -45.00000000	    -45.00000000	  -3881.24155440	  -1005.76891324	     25.74155218	     46.59399253	   1429.47230500	     42.50118608	     11.74657324	    -14.73267920
     10.18000000	    -20.13868230	    -35.13827727	     56.27131094	     87.33478293	    766.68291414	    -41.18604804	     28.41406268	    -45.00000000	     39.29163309	    -45.00000000	    -45.00000000	  -4059.83829654	  -2628.90797075	    161.85840755	     41.39548700	    720.76581183	    175.01367612	     13.03180882	     12.61018203	     -1.02269659	     29.52608378	    -25.27623025	    -45.00000000	    -45.00000000	  -3881.02493542	  -1005.80181482	     25.81614605	     46.64175272	   1429.40349975	     42.65081528	     11.81259543	    -14.50982440
     10.19000000	    -20.25175401	    -34.96584802	     55.95771101	     86.57792219	    766.23184369	    -41.18857422	     28.54651808	    -45.00000000	     39.26028918	    -45.00000000	    -45.00000000	  -4059.82652075	  -2628.85135709	    161.76256036	     41.83046910	    720.85189691	    175.21839481	     12.97174714	     12.60766469	     -0.86426432	     29.19882784	    -25.08945510	    -45.00000000	    -45.00000000	  -3881.27999100	  -1005.73133852	     25.68994819	     46.45463526	   1429.51104185	     42.62221333	     11.60603395	    -14.82598186
     10.20000000	    -20.27638643	    -34.86671645	     55.81569268	     85.73093639	    765.81308934	    -41.21107578	     28.50560566	    -45.00000000	     39.30228338	    -45.00000000	    -45.00000000	  -4059.83513547	  -2628.76795453	    161.82053078	     41.97962951	    720.88850707	    175.49367457	     13.03324138	     12.51770724	     -0.89072155	     29.50751459	    -25.03632968	    -45.00000000	    -45.00000000	  -3881.16982604	  -1005.72785834	     25.71175970	     46.37663466	   1429.56340121	     42.62418797	     11.58824426	    -14.64100573
     10.21000000	    -20.37582776	    -34.69619584	     55.59010445	     84.79907568	    765.42190039	    -41.25410460	     28.52375412	    -45.00000000	     39.27098292	    -45.00000000	    -45.00000000	  -4059.89785964	  -2628.66265440	    161.81189209	     42.32541808	    720.90558359	    175.89676873	     13.08125546	     12.42036020	     -0.88608240	     29.44547740	    -25.05522329	    -45.00000000	    -45.00000000	  -3881.15035209	  -1005.72652544	     25.69434810	     46.28535083	   1429.56071599	     42.59258567	     11.53850782	    -14.69410042
     10.22000000	    -20.45402203	    -34.52486658	     55.40025295	     83.78583186	    765.05416927	    -41.31725359	     28.52890762	    -45.00000000	     39.26497029	    -45.00000000	    -45.00000000	  -4059.97042373	  -2628.53893038	    161.83573016	     42.60509203	    720.89619736	    176.37931196	     13.14612020	     12.33023249	     -0.88521580	     29.52452964	    -25.08924224	    -45.00000000	    -45.00000000	  -3881.12383522	  -1005.70803766	     25.66728100	     46.17703342	   1429.52202619	     42.58415506	     11.52149564	    -14.69648004
     10.23000000	    -20.56702175	    -34.35593046	     55.14954947	     82.69583905	    764.70634974	    -41.39917045	     28.52602699	    -45.00000000	     39.24419267	    -45.00000000	    -45.00000000	  -4060.01597380	  -2628.43305671	    161.82883617	     42.95294103	    720.93050933	    176.92256024	     13.19581718	     12.23590057	     -0.88640866	     29.48810270	    -25.12272658	    -45.00000000	    -45.00000000	  -3881.06696922	  -1005.72554487	     25.66602590	     46.06682183	   1429.53312647	     42.59406755	     11.48291421	    -14.70962562
     10.24000000	    -20.76593177	    -34.16670141	     54.79447112	     81.52677759	    764.37420068	    -41.49815431	     28.49135780	    -45.00000000	     39.18743455	    -45.00000000	    -45.00000000	  -4060.10637744	  -2628.39646274	    161.72945379	     43.35496545	    721.01541723	    177.49043093	     13.20596103	     12.15441070	     -0.93596182	     29.23760482	    -25.26619110	    -45.00000000	    -45.00000000	  -3880.86705730	  -1005.85454958	     25.76369298	     46.01384724	   1429.53600280	     42.62999217	     11.47516377	    -14.75405720
     10.25000000	    -20.77908401	    -34.00298971	     54.67588402	     80.27457852	    764.05420707	    -41.61181488	     28.50358443	    -45.00000000	     39.20246546	    -45.00000000	    -45.00000000	  -4060.18242369	  -2628.18296406	    161.81452404	     43.61245115	    720.91591784	    178.10652449	     13.31037607	     12.06998087	     -0.87967625	     29.55210054	    -25.21975077	    -45.00000000	    -45.00000000	  -3880.96447869	  -1005.69362448	     25.64615407	     45.82812966	   1429.48818292	     42.69656250	     11.48659559	    -14.75201596
     10.26000000	    -20.91622901	    -33.85052441	     54.40644396	     78.93867829	    763.74677172	    -41.73681884	     28.45404969	    -45.00000000	     39.16540848	    -45.00000000	    -45.00000000	  -4060.27051614	  -2628.11662556	    161.76998041	     44.06570690	    720.97741420	    178.75533482	     13.34441420	     11.99759756	     -0.89768422	     29.43056738	    -25.25944270	    -45.00000000	    -45.00000000	  -3880.86688975	  -1005.73222671	     25.66491868	     45.69699032	   1429.54711294	     42.77299015	     11.44201458	    -14.77098505
     10.27000000	    -20.97503968	    -33.68903377	     54.20440934	     77.51064336	    763.45156973	    -41.86978898	     28.46685151	    -45.00000000	     39.17742615	    -45.00000000	    -45.00000000	  -4060.33253999	  -2627.93300570	    161.81653573	     44.36602525	    720.94772724	    179.39858076	     13.40420698	     11.92924104	     -0.87766993	     29.55505978	    -25.28803067	    -45.00000000	    -45.00000000	  -3880.86223805	  -1005.70261759	     25.59985028	     45.51811017	   1429.49582916	     42.88109651	     11.46712358	    -14.78995387
     10.28000000	    -21.09224404	    -33.51444027	     53.92362917	     75.99707569	    763.17344898	    -42.00623935	     28.43223190	    -45.00000000	     39.15441374	    -45.00000000	    -45.00000000	  -4060.40689209	  -2627.80810229	    161.78893439	     44.73841172	    720.97702905	    180.02880579	     13.43662371	     11.87827521	     -0.87842951	     29.54872989	    -25.32038512	    -45.00000000	    -45.00000000	  -3880.81133308	  -1005.71952674	     25.59622505	     45.37577437	   1429.50134525	     42.99521331	     11.46227174	    -14.81418252
     10.29000000	    -21.20859997	    -33.35370286	     53.69067931	     74.38787181	    762.91360842	    -42.14293811	     28.42087853	    -45.00000000	     39.14061362	    -45.00000000	    -45.00000000	  -4060.52422481	  -2627.66760511	    161.80790127	     45.04565298	    720.94875021	    180.63756799	     13.48438425	     11.84250791	     -0.88378373	     29.60076487	    -25.38086751	    -45.00000000	    -45.00000000	  -3880.75298104	  -1005.67008232	     25.57669513	     45.23802757	   1429.48325879	     43.12106005	     11.48208171	    -14.84589677
